<svg xmlns="http://www.w3.org/2000/svg" viewBox="0 0 1024 1024"><g fill="none" stroke-width="2"><path stroke="#4d0307" d="m321.05 166.52.21 57.48" vector-effect="non-scaling-stroke"/><path stroke="#590308" d="m321.26 224 .42 634.69q0 .87.86.78 26.59-2.59 50.73-4.97 41.28-4.07 82.53-6.09a.95.94 2.2 0 0 .89-.82q.42-3.01.45-6.09 1.03-104.55.86-209.1c-.01-5.99.39-16.2-.15-24.4" vector-effect="non-scaling-stroke"/><path stroke="#4d0307" d="m457.85 608 .22-51.99q0-.46.24-.86l.23-.4" vector-effect="non-scaling-stroke"/><path stroke="#73050a" d="m458.54 554.75 103.8 293.28a.77.77 0 0 0 .68.51c37.25 2.22 69.91 4.14 111.39 8.77q13.98 1.56 28.06 2.62a.72.72 0 0 0 .69-.36q.45-.79-.46-1.6" vector-effect="non-scaling-stroke"/><path stroke="#4d0307" d="M702.7 857.97q.98-15.87.54-31.48" vector-effect="non-scaling-stroke"/><path stroke="#590308" d="M703.24 826.49V166.26a.51.51 0 0 0-.51-.51H568.27a.48.47-89.4 0 0-.47.47l-.62 272.53" vector-effect="non-scaling-stroke"/><path stroke="#4d0307" d="M567.18 438.75q-.39 16.35.06 32.71c.01.41-.17.75-.42 1.03" vector-effect="non-scaling-stroke"/><path stroke="#73050a" d="M566.82 472.49 458.05 165.17q-.15-.42-.59-.42H321.53a.59.59 0 0 0-.53.85q.26.52.05.92" vector-effect="non-scaling-stroke"/><path stroke="#bf0711" d="M566.82 472.49 702.7 857.97M458.54 554.75 321.57 166.72q-.06-.17-.23-.19-.12-.02-.29-.01" vector-effect="non-scaling-stroke"/><path stroke="#a5060e" d="M457.85 608c.1-4.2-1.64-4.48-2.83-7.8q-3.51-9.83-6.85-19.72-.11-.33-.16.01l-.06.44a.06.06 0 0 1-.12.01l-1.6-4.68q-.05-.15.02-.18l.24-.08a.11.11 0 0 0 .08-.14Q385.97 401.09 326 226.12c-.7-2.05-2.44-3.47-2.44-6.31q0-1.76-1.69-2.68-.39-.21-.4.22l-.21 6.65M703.24 826.49l-.66 1.56q-.19.44-.46.04c-.78-1.13-1.44-1.91-1.89-3.23q-64.5-188.24-129.65-376.27-.2-.59-.82-.54-1.73.14-1.72-1.73a.09.09 0 0 0-.17-.03l-.11.34q-.26.78-.29-.04l-.29-7.84" vector-effect="non-scaling-stroke"/></g><path d="M90.31 0h844.24c46.46 2.77 82.69 36.1 89.45 82.06v860.75c-6.79 43.1-38.38 75.18-81.56 81.19H81.94C35.89 1017.27 3.22 981.12 0 934.69V89.94C3.07 40.18 40.67 3.38 90.31 0Zm230.74 166.52.21 57.48.42 634.69q0 .87.86.78 26.59-2.59 50.73-4.97 41.28-4.07 82.53-6.09a.95.94 2.2 0 0 .89-.82q.42-3.01.45-6.09 1.03-104.55.86-209.1c-.01-5.99.39-16.2-.15-24.4l.22-51.99q0-.46.24-.86l.23-.4 103.8 293.28a.77.77 0 0 0 .68.51c37.25 2.22 69.91 4.14 111.39 8.77q13.98 1.56 28.06 2.62a.72.72 0 0 0 .69-.36q.45-.79-.46-1.6.98-15.87.54-31.48V166.26a.51.51 0 0 0-.51-.51H568.27a.48.47-89.4 0 0-.47.47l-.62 272.53q-.39 16.35.06 32.71c.01.41-.17.75-.42 1.03L458.05 165.17q-.15-.42-.59-.42H321.53a.59.59 0 0 0-.53.85q.26.52.05.92Z"/><path fill="#e50914" d="M566.82 472.49 702.7 857.97q.91.81.46 1.6a.72.72 0 0 1-.69.36q-14.08-1.06-28.06-2.62c-41.48-4.63-74.14-6.55-111.39-8.77a.77.77 0 0 1-.68-.51l-103.8-293.28-136.97-388.03q-.06-.17-.23-.19-.12-.02-.29-.01.21-.4-.05-.92a.59.59 0 0 1 .53-.85h135.93q.44 0 .59.42l108.77 307.32Z"/><path fill="#b1060f" d="m703.24 826.49-.66 1.56q-.19.44-.46.04c-.78-1.13-1.44-1.91-1.89-3.23q-64.5-188.24-129.65-376.27-.2-.59-.82-.54-1.73.14-1.72-1.73a.09.09 0 0 0-.17-.03l-.11.34q-.26.78-.29-.04l-.29-7.84.62-272.53a.48.47-89.4 0 1 .47-.47h134.46a.51.51 0 0 1 .51.51v660.23Z"/><path fill="#99050d" d="M321.05 166.52q.17-.01.29.01.17.02.23.19l136.97 388.03-.23.4q-.24.4-.24.86l-.22 51.99c.1-4.2-1.64-4.48-2.83-7.8q-3.51-9.83-6.85-19.72-.11-.33-.16.01l-.06.44a.06.06 0 0 1-.12.01l-1.6-4.68q-.05-.15.02-.18l.24-.08a.11.11 0 0 0 .08-.14Q385.97 401.09 326 226.12c-.7-2.05-2.44-3.47-2.44-6.31q0-1.76-1.69-2.68-.39-.21-.4.22l-.21 6.65-.21-57.48Z"/><path fill="#b1060f" d="M457.85 608c.54 8.2.14 18.41.15 24.4q.17 104.55-.86 209.1-.03 3.08-.45 6.09a.95.94 2.2 0 1-.89.82q-41.25 2.02-82.53 6.09-24.14 2.38-50.73 4.97-.86.09-.86-.78L321.26 224l.21-6.65q.01-.43.4-.22 1.69.92 1.69 2.68c0 2.84 1.74 4.26 2.44 6.31q59.97 174.97 120.57 349.74a.11.11 0 0 1-.08.14l-.24.08q-.07.03-.02.18l1.6 4.68a.06.06 0 0 0 .12-.01l.06-.44q.05-.34.16-.01 3.34 9.89 6.85 19.72c1.19 3.32 2.93 3.6 2.83 7.8Z"/><path fill="#99050d" d="m567.18 438.75.29 7.84q.03.82.29.04l.11-.34a.09.09 0 0 1 .17.03q-.01 1.87 1.72 1.73.62-.05.82.54 65.15 188.03 129.65 376.27c.45 1.32 1.11 2.1 1.89 3.23q.27.4.46-.04l.66-1.56q.44 15.61-.54 31.48L566.82 472.49c.25-.28.43-.62.42-1.03q-.45-16.36-.06-32.71Z"/></svg>